<?xml version="1.0" encoding="utf-8"?>
<svg viewBox="0 0 500 500" xmlns="http://www.w3.org/2000/svg">
  <path d="M 0 249.998 C 0 388.182 111.817 500 250 500 C 388.18 500 500 388.182 500 249.998 C 500 111.817 388.18 0 250 0 C 111.817 0 0 111.817 0 249.998 Z" style="fill: rgb(55, 101, 255);"/>
  <path d="M 364.744 135.256 C 314.943 85.937 236.327 83.985 188.477 131.347 C 103.027 217.285 130.37 369.63 130.37 369.63 C 130.37 369.63 283.202 396.972 368.653 311.522 C 416.014 263.672 414.548 184.57 364.744 135.256 Z M 303.222 245.605 L 278.807 295.897 L 254.395 245.605 L 204.101 221.192 L 254.395 196.777 L 278.807 146.485 L 303.222 196.777 L 353.514 221.192 L 303.222 245.605 Z" fill="#fff" style=""/>
</svg>